<?xml version="1.0" encoding="utf-8"?>
<!-- Generator: Adobe Illustrator 27.5.0, SVG Export Plug-In . SVG Version: 6.00 Build 0)  -->
<svg version="1.1" id="Calque_1" xmlns="http://www.w3.org/2000/svg" xmlns:xlink="http://www.w3.org/1999/xlink" x="0px" y="0px"
	 viewBox="0 0 50 50" style="enable-background:new 0 0 50 50;" xml:space="preserve">
<style type="text/css">
	.st0{fill:#E6E6E6;}
	.st1{fill:#8C452B;}
	.st2{fill:#BF9A78;}
	.st3{fill:#FFFFFF;}
</style>
<g>
	<path class="st0" d="M40.87,5.51H9.13c-0.99,0-1.79,0.8-1.79,1.79v5.96h35.33V7.3C42.66,6.31,41.86,5.51,40.87,5.51z M16.42,9.09
		c-0.47,0-0.86-0.38-0.86-0.86c0-0.47,0.38-0.86,0.86-0.86c0.47,0,0.86,0.38,0.86,0.86C17.28,8.71,16.9,9.09,16.42,9.09z M33.8,9.09
		c-0.47,0-0.86-0.38-0.86-0.86c0-0.47,0.38-0.86,0.86-0.86c0.47,0,0.86,0.38,0.86,0.86C34.66,8.71,34.27,9.09,33.8,9.09z"/>
	<path class="st1" d="M45.32,13.67L42.61,27.8l1.11,14.69c0.08,1.08-0.77,2-1.85,2H8.14c-1.08,0-1.94-0.92-1.85-2L7.39,27.8
		L4.68,13.67c-0.25-1.33,0.76-2.56,2.12-2.56h36.4C44.55,11.11,45.57,12.34,45.32,13.67z"/>
	<path class="st2" d="M41.86,44.49H8.14c-1.08,0-1.94-0.92-1.85-2L7.39,27.8h19.44h15.78l1.11,14.69
		C43.8,43.57,42.94,44.49,41.86,44.49z"/>
	<g>
		<path class="st3" d="M24.31,24.11c0-2.76-2.31-5-5.15-5s-5.15,2.24-5.15,5h1.72c0-1.81,1.54-3.29,3.43-3.29
			c1.89,0,3.43,1.47,3.43,3.29s-1.54,3.29-3.43,3.29h-1.6v1.72h1.6c1.89,0,3.43,1.47,3.43,3.29c0,1.81-1.54,3.29-3.43,3.29
			c-1.89,0-3.43-1.47-3.43-3.29h-1.72c0,2.76,2.31,5,5.15,5s5.15-2.24,5.15-5c0-1.72-0.9-3.24-2.27-4.14
			C23.41,27.36,24.31,25.84,24.31,24.11z"/>
		<polygon class="st3" points="27.65,22.03 28.53,23.51 31.92,21.48 31.92,36.55 33.63,36.55 33.63,18.46 		"/>
	</g>
</g>
</svg>
