<?xml version="1.0" encoding="utf-8"?>
<!-- Generator: Adobe Illustrator 27.5.0, SVG Export Plug-In . SVG Version: 6.00 Build 0)  -->
<svg version="1.1" id="Calque_1" xmlns="http://www.w3.org/2000/svg" xmlns:xlink="http://www.w3.org/1999/xlink" x="0px" y="0px"
	 viewBox="0 0 50 50" style="enable-background:new 0 0 50 50;" xml:space="preserve">
<style type="text/css">
	.st0{fill:#025159;stroke:#025159;stroke-width:0.3;stroke-miterlimit:10;}
	.st1{fill:none;stroke:#025159;stroke-linecap:round;stroke-miterlimit:10;}
	.st2{fill:#025159;}
</style>
<g>
	<g>
		<path class="st0" d="M21.7,33.1l-0.9,4.4l-5.9,6.4c0,0-0.9,1,0,2.1c0.8,0.9,1.9,0.7,2.6,0c0.6-0.7,5.6-5.9,5.6-5.9l1.5-4.4
			L21.7,33.1z"/>
		<path class="st0" d="M21.4,28.1c0.6-1.7,1.6-5.8,3.1-6.8c-0.5-0.7-1.3-1.4-2.9-1.1c-3,0.6-5.2,7.9-5.2,9.1c0,0.9,2.6,1.7,4.5,2.1
			C20.7,30.6,20.9,29.5,21.4,28.1z"/>
		<path class="st0" d="M31.2,18.5c-0.5,1.3-2.1,2-3.6,1.4l0,0c-1.5-0.6-2.4-2.1-1.9-3.4l0.7-1.9c0.5-1.3,2.1-2,3.6-1.4l0,0
			c1.5,0.6,2.4,2.1,1.9,3.4L31.2,18.5z"/>
		<path class="st0" d="M35.9,46.1c0,0.5-0.1,0.9-0.6,0.9l0,0c-0.5,0-0.6-0.4-0.6-0.9l-0.3-21.1c0-0.5,0.4-0.9,0.9-0.9l0,0
			c0.5,0,0.9,0.4,0.9,0.9L35.9,46.1z"/>
		<path class="st0" d="M28.1,21.9c-0.6-0.6-1.5-1.3-3.3-0.8c-1.7,0.4-2.9,5.1-3.5,7c-1,3-0.8,4.3,0.9,6.4c1.9,2.3,6.1,8.5,8.1,11.3
			c0.3,0.4,1.2,1.1,2.1,0.6c1-0.6,1-1.7,0.4-2.7c-0.6-1.1-7.3-11.1-7.3-11.1l1.8-7l2.3,3.7c0,0,4.7,0,6.3,0c0.4,0,1.1-0.3,1.1-1.4
			c0-1.1-0.6-1.3-1.3-1.3c-0.7,0-4.7,0-4.7,0S29.1,23,28.1,21.9z"/>
		<path class="st0" d="M17.9,29.6c0,0,0.5-3.8,2.2-6.2"/>
		<path class="st0" d="M20.6,22.5c0,0,0.3-0.6,0.6-0.8"/>
	</g>
	<g>
		<line class="st1" x1="19.7" y1="26.2" x2="28.8" y2="3.3"/>
		<g>
			<path class="st2" d="M24.4,14.1c-0.9-1.9-1.8-3.6-2.8-6.7c2.2,0,4.5-2.6,6.7-2.8C27,6.8,25.7,10.8,24.4,14.1z"/>
		</g>
	</g>
</g>
</svg>
