<?xml version="1.0" encoding="utf-8"?>
<!-- Generator: Adobe Illustrator 27.5.0, SVG Export Plug-In . SVG Version: 6.00 Build 0)  -->
<svg version="1.1" id="Calque_1" xmlns="http://www.w3.org/2000/svg" xmlns:xlink="http://www.w3.org/1999/xlink" x="0px" y="0px"
	 viewBox="0 0 50 50" style="enable-background:new 0 0 50 50;" xml:space="preserve">
<style type="text/css">
	.st0{fill:#025159;stroke:#025159;stroke-width:0.3;stroke-miterlimit:10;}
</style>
<g>
	<path class="st0" d="M19.05,29.1l-1.26,5.94l-8.06,8.71c0,0-1.26,1.39,0,2.89c1.06,1.27,2.64,0.91,3.49,0
		c0.85-0.91,7.68-8.11,7.68-8.11l2.01-5.94L19.05,29.1z"/>
	<path class="st0" d="M18.54,22.31c0.78-2.34,2.17-7.89,4.2-9.24c-0.64-0.98-1.83-1.9-4-1.46c-4.15,0.85-7.08,10.76-7.08,12.45
		c0,1.19,3.5,2.34,6.1,2.92C17.61,25.7,17.89,24.27,18.54,22.31z"/>
	<path class="st0" d="M31.97,9.26c-0.66,1.83-2.88,2.7-4.96,1.95l0,0c-2.08-0.75-3.22-2.84-2.56-4.67l0.93-2.55
		c0.66-1.83,2.88-2.7,4.96-1.95l0,0c2.08,0.75,3.22,2.84,2.56,4.67L31.97,9.26z"/>
	<path class="st0" d="M38.43,46.87c0,0.65-0.15,1.18-0.8,1.18l0,0c-0.65,0-0.8-0.53-0.8-1.18l-0.38-28.83
		c0-0.65,0.53-1.18,1.18-1.18l0,0c0.65,0,1.17,0.53,1.17,1.18L38.43,46.87z"/>
	<path class="st0" d="M27.79,13.94c-0.79-0.84-2.03-1.75-4.5-1.12c-2.33,0.59-3.9,6.95-4.75,9.5c-1.36,4.05-1.09,5.88,1.23,8.68
		c2.61,3.13,8.35,11.64,11.01,15.44c0.41,0.58,1.65,1.48,2.92,0.76c1.33-0.75,1.37-2.33,0.59-3.62c-0.88-1.48-10-15.09-10-15.09
		l2.52-9.5l3.1,5.09c0,0,6.42,0.02,8.54,0c0.61,0,1.55-0.4,1.55-1.88s-0.83-1.8-1.8-1.8c-0.97,0-6.43,0-6.43,0
		S29.09,15.32,27.79,13.94z"/>
	<path class="st0" d="M13.75,24.38c0,0,0.64-5.14,3.03-8.5"/>
	<path class="st0" d="M17.53,14.63c0,0,0.38-0.75,0.81-1.09"/>
</g>
</svg>
