<?xml version="1.0" encoding="utf-8"?>
<!-- Generator: $$$/GeneralStr/196=Adobe Illustrator 27.6.0, SVG Export Plug-In . SVG Version: 6.00 Build 0)  -->
<svg version="1.1" id="Calque_1" xmlns="http://www.w3.org/2000/svg" xmlns:xlink="http://www.w3.org/1999/xlink" x="0px" y="0px"
	 viewBox="0 0 315.4 75.3" style="enable-background:new 0 0 315.4 75.3;" xml:space="preserve">
<style type="text/css">
	.st0{fill:#FFFFFF;stroke:#FFFFFF;stroke-width:2;stroke-linecap:round;stroke-linejoin:round;stroke-miterlimit:10;}
	.st1{fill:#FFFFFF;stroke:#FFFFFF;stroke-width:2;stroke-linecap:round;stroke-linejoin:round;}
	.st2{fill:#009EE2;}
	.st3{fill:#004995;}
</style>
<path class="st0" d="M95,28.7c-1.4-1.2-1.9-3.1-1.9-5.9v-13h2.6v13c-0.2,1.2,0.1,2.5,0.7,3.6c0.8,1.1,2.1,1.5,4.2,1.5h8.3
	c2.1,0,3.5-0.3,4.2-1.5c0.6-1.1,0.8-2.3,0.7-3.6v-13h2.6v12.9c0,3-0.5,4.9-1.8,6c-1.4,1.2-3.5,1.4-6.7,1.4h-6.1
	C98.6,30.1,96.4,29.9,95,28.7"/>
<polygon class="st0" points="120.7,29.8 120.7,9.7 124.6,9.7 142.8,27.6 142.8,9.7 145.3,9.7 145.3,29.8 141.6,29.8 123.2,11.8 
	123.2,29.8 "/>
<polygon class="st0" points="149.8,9.7 152.3,9.7 152.3,29.8 149.8,29.8 "/>
<polygon class="st0" points="154.5,9.7 157.4,9.7 167.3,27.7 177.2,9.7 180.1,9.7 168.9,29.8 165.7,29.8 "/>
<polygon class="st0" points="182.1,9.7 201.9,9.7 201.9,12 184.5,12 184.5,18.3 201.2,18.3 201.2,20.5 184.5,20.5 184.5,27.6 
	201.9,27.6 201.9,29.8 182.1,29.8 "/>
<path class="st0" d="M205.2,29.8V9.7h14.4c5.7,0,7.9,0.7,7.9,4.8v2.4c0,2.4-0.8,3.4-3.5,4c2.2,0.2,3.3,1.6,3.3,3.9v5h-2.5v-4.5
	c0-3.1-1.4-3.4-4.9-3.4h-12.2v7.9L205.2,29.8L205.2,29.8z M207.6,11.9v7.7h12.7c3.6,0,4.5-0.6,4.5-3.4v-1c0-2.7-0.9-3.4-4.5-3.4
	H207.6z"/>
<path class="st0" d="M233.4,23.3c0,0.5-0.1,0.9-0.1,1.2c0,2.7,1.7,3.4,5.9,3.4h5.2c4.9,0,6.6-0.5,6.6-3.9c0-2.9-1.3-3.3-4.4-3.3
	h-8.5c-5.2,0-7.3-1.4-7.3-5.5c0-4.5,2.6-5.6,8.6-5.6h4.6c3.7,0,6.1,0.1,7.6,1.3c1,0.8,1.4,2.1,1.4,4v0.6h-2.4V15
	c0-2.9-1.2-3.4-5-3.4h-6.9c-3.9,0-5.3,0.6-5.3,3.3c0,3,1.6,3.4,5.5,3.4h7.2c2.5,0,4.3,0.1,5.5,0.8c1.5,0.9,1.9,2.4,1.9,4.9
	c0,4.6-2.2,6-8.3,6h-6.8c-5.2,0-7.5-1.4-7.5-5.3c0-0.4,0-0.9,0.1-1.5L233.4,23.3z"/>
<polygon class="st0" points="257.4,9.7 259.9,9.7 259.9,29.8 257.4,29.8 "/>
<polygon class="st0" points="272.7,29.8 272.7,12 262.8,12 262.8,9.7 285.2,9.7 285.2,12 275.2,12 275.2,29.8 "/>
<path class="st0" d="M287.9,9.7h19.8V12h-17.4v6.3H307v2.2h-16.6v7.1h17.4v2.2h-19.8V9.7z M298.8,4.6h3.3l-4.6,3.7h-1.9L298.8,4.6z"
	/>
<polygon class="st0" points="102.7,51.4 102.7,44.6 96.9,44.6 96.9,51.4 93.1,51.4 93.1,34.7 96.9,34.7 96.9,41.2 102.7,41.2 
	102.7,34.7 106.5,34.7 106.5,51.4 "/>
<path class="st0" d="M123.2,48.2h-6.1l-0.9,3.3h-4l5.8-16.7h4.5l5.8,16.7h-4.2L123.2,48.2z M119.7,39.3L118,45h4.3l-1.6-5.7
	l-0.4-1.8h-0.1L119.7,39.3L119.7,39.3z"/>
<path class="st0" d="M147.5,45.4c0,4.2-2.3,6.3-6.7,6.3c-4.4,0-6.8-2.1-6.8-6.3V34.7h3.8v10.7c0,2,0.9,2.9,3,2.9s3-0.9,3-2.9V34.7
	h3.7V45.4L147.5,45.4z"/>
<polygon class="st0" points="161.5,38.1 161.5,51.4 157.7,51.4 157.7,38.1 153.3,38.1 153.3,34.7 166,34.7 166,38.1 "/>
<polygon class="st0" points="183.3,48.1 183.2,51.4 171.8,51.4 171.8,34.7 182.8,34.7 182.9,38 175.6,38 175.6,41.3 181.7,41.3 
	181.7,44.3 175.6,44.3 175.6,48.1 "/>
<polygon class="st0" points="195.4,45 189,45 189,42.5 195.4,42.5 "/>
<path class="st0" d="M212.1,48.2H206l-0.9,3.3h-4l5.8-16.7h4.5l5.9,16.7H213L212.1,48.2z M208.6,39.3l-1.7,5.7h4.3l-1.6-5.7
	l-0.4-1.8h-0.1L208.6,39.3z"/>
<polygon class="st0" points="233.6,48 233.5,51.4 222.9,51.4 222.9,34.7 226.7,34.7 226.7,48 "/>
<path class="st0" d="M244.5,51.7c-1.8,0-3.6-0.4-5.2-1.2l0.5-3.2c1.4,0.8,3,1.2,4.6,1.2c1.8,0,2.6-0.7,2.6-1.8
	c0-2.6-7.7-1.5-7.7-7.1c0-2.8,1.8-5.1,6.1-5.1c1.6,0,3.2,0.3,4.7,0.9l-0.5,3.2c-1.3-0.4-2.7-0.7-4-0.7c-2.1,0-2.6,0.7-2.6,1.6
	c0,2.6,7.7,1.4,7.7,7.1C250.8,49.7,248.5,51.7,244.5,51.7"/>
<path class="st0" d="M267.5,48.2h-6.1l-0.9,3.3h-4l5.8-16.7h4.5l5.9,16.7h-4.2L267.5,48.2L267.5,48.2z M264,39.3l-1.7,5.7h4.3
	l-1.6-5.7l-0.5-1.8h-0.1L264,39.3L264,39.3z"/>
<path class="st0" d="M289.6,38.3c-1-0.4-2.2-0.6-3.3-0.6c-3,0-4,1.2-4,5.2c0,4.2,1,5.5,4.1,5.5c1.1,0,2.2-0.2,3.3-0.7l0.4,3.1
	c-1.3,0.6-2.7,0.9-4.2,0.9c-5.1,0-7.5-2.8-7.5-8.8c0-5.6,2.4-8.5,7.8-8.5c1.3,0,2.6,0.2,3.9,0.7L289.6,38.3L289.6,38.3z"/>
<polygon class="st0" points="307.2,48.1 307.1,51.4 295.8,51.4 295.8,34.7 306.8,34.7 306.9,38 299.5,38 299.5,41.3 305.7,41.3 
	305.7,44.3 299.5,44.3 299.5,48.1 "/>
<path class="st1" d="M59,9.6c-2.6,5.5-5.8,10.6-9.6,15.3C38.8,38.4,24.4,48.6,16.1,48.6c-0.9,0-1.8-0.1-2.6-0.5
	c-1.6-0.6-2.7-2-3-3.7c-1.1-4.4,0.9-11.4,5.2-19.1L11.1,27c-3.6,7.3-5.2,13.8-4,18.3c0.6,2.5,2.3,4.6,4.8,5.6
	c1.2,0.5,2.6,0.7,3.9,0.7c9.7,0.1,24.7-10.3,36.5-25.1c4.6-5.6,8.3-11.8,11-18.5C63.3,8,59,9.6,59,9.6z"/>
<polygon class="st0" points="63.6,41.1 24.5,41.1 25.7,38.6 64.8,38.6 "/>
<path class="st1" d="M30.2,69.1c2.6-5.5,5.8-10.6,9.6-15.3c10.7-13.5,25.1-23.7,33.4-23.6c0.9,0,1.8,0.1,2.6,0.5
	c1.6,0.6,2.7,2,3,3.6c1.1,4.4-0.9,11.4-5.2,19.1l4.6-1.7c3.6-7.3,5.2-13.8,4-18.3c-0.6-2.5-2.3-4.6-4.8-5.6
	c-1.2-0.5-2.6-0.7-3.9-0.7C63.7,27,48.7,37.4,37,52.2c-4.6,5.6-8.3,11.8-11,18.5C25.9,70.7,30.2,69.1,30.2,69.1z"/>
<path class="st2" d="M95,28.7c-1.4-1.2-1.9-3.1-1.9-5.9v-13h2.6v13c-0.2,1.2,0.1,2.5,0.7,3.6c0.8,1.1,2.1,1.5,4.2,1.5h8.3
	c2.1,0,3.5-0.3,4.2-1.5c0.6-1.1,0.8-2.3,0.7-3.6v-13h2.6v12.9c0,3-0.5,4.9-1.8,6c-1.4,1.2-3.5,1.4-6.7,1.4h-6.1
	C98.6,30.1,96.4,29.9,95,28.7"/>
<polygon class="st2" points="120.7,29.8 120.7,9.7 124.6,9.7 142.8,27.6 142.8,9.7 145.3,9.7 145.3,29.8 141.6,29.8 123.2,11.8 
	123.2,29.8 "/>
<polygon class="st2" points="149.8,9.7 152.3,9.7 152.3,29.8 149.8,29.8 "/>
<polygon class="st2" points="154.5,9.7 157.4,9.7 167.3,27.7 177.2,9.7 180.1,9.7 168.9,29.8 165.7,29.8 "/>
<polygon class="st2" points="182.1,9.7 201.9,9.7 201.9,12 184.5,12 184.5,18.3 201.2,18.3 201.2,20.5 184.5,20.5 184.5,27.6 
	201.9,27.6 201.9,29.8 182.1,29.8 "/>
<path class="st2" d="M205.2,29.8V9.7h14.4c5.7,0,7.9,0.7,7.9,4.8v2.4c0,2.4-0.8,3.4-3.5,4c2.2,0.2,3.3,1.6,3.3,3.9v5h-2.5v-4.5
	c0-3.1-1.4-3.4-4.9-3.4h-12.2v7.9L205.2,29.8L205.2,29.8z M207.6,11.9v7.7h12.7c3.6,0,4.5-0.6,4.5-3.4v-1c0-2.7-0.9-3.4-4.5-3.4
	H207.6z"/>
<path class="st2" d="M233.4,23.3c0,0.5-0.1,0.9-0.1,1.2c0,2.7,1.7,3.4,5.9,3.4h5.2c4.9,0,6.6-0.5,6.6-3.9c0-2.9-1.3-3.3-4.4-3.3
	h-8.5c-5.2,0-7.3-1.4-7.3-5.5c0-4.5,2.6-5.6,8.6-5.6h4.6c3.7,0,6.1,0.1,7.6,1.3c1,0.8,1.4,2.1,1.4,4v0.6h-2.4V15
	c0-2.9-1.2-3.4-5-3.4h-6.9c-3.9,0-5.3,0.6-5.3,3.3c0,3,1.6,3.4,5.5,3.4h7.2c2.5,0,4.3,0.1,5.5,0.8c1.5,0.9,1.9,2.4,1.9,4.9
	c0,4.6-2.2,6-8.3,6h-6.8c-5.2,0-7.5-1.4-7.5-5.3c0-0.4,0-0.9,0.1-1.5L233.4,23.3z"/>
<polygon class="st2" points="257.4,9.7 259.9,9.7 259.9,29.8 257.4,29.8 "/>
<polygon class="st2" points="272.7,29.8 272.7,12 262.8,12 262.8,9.7 285.2,9.7 285.2,12 275.2,12 275.2,29.8 "/>
<path class="st2" d="M287.9,9.7h19.8V12h-17.4v6.3H307v2.2h-16.6v7.1h17.4v2.2h-19.8V9.7z M298.8,4.6h3.3l-4.6,3.7h-1.9L298.8,4.6z"
	/>
<polygon class="st3" points="102.7,51.4 102.7,44.6 96.9,44.6 96.9,51.4 93.1,51.4 93.1,34.7 96.9,34.7 96.9,41.2 102.7,41.2 
	102.7,34.7 106.5,34.7 106.5,51.4 "/>
<path class="st3" d="M123.2,48.2h-6.1l-0.9,3.3h-4l5.8-16.7h4.5l5.8,16.7h-4.2L123.2,48.2z M119.7,39.3L118,45h4.3l-1.6-5.7
	l-0.4-1.8h-0.1L119.7,39.3L119.7,39.3z"/>
<path class="st3" d="M147.5,45.4c0,4.2-2.3,6.3-6.7,6.3c-4.4,0-6.8-2.1-6.8-6.3V34.7h3.8v10.7c0,2,0.9,2.9,3,2.9s3-0.9,3-2.9V34.7
	h3.7V45.4L147.5,45.4z"/>
<polygon class="st3" points="161.5,38.1 161.5,51.4 157.7,51.4 157.7,38.1 153.3,38.1 153.3,34.7 166,34.7 166,38.1 "/>
<polygon class="st3" points="183.3,48.1 183.2,51.4 171.8,51.4 171.8,34.7 182.8,34.7 182.9,38 175.6,38 175.6,41.3 181.7,41.3 
	181.7,44.3 175.6,44.3 175.6,48.1 "/>
<polygon class="st3" points="195.4,45 189,45 189,42.5 195.4,42.5 "/>
<path class="st3" d="M212.1,48.2H206l-0.9,3.3h-4l5.8-16.7h4.5l5.9,16.7H213L212.1,48.2z M208.6,39.3l-1.7,5.7h4.3l-1.6-5.7
	l-0.4-1.8h-0.1L208.6,39.3z"/>
<polygon class="st3" points="233.6,48 233.5,51.4 222.9,51.4 222.9,34.7 226.7,34.7 226.7,48 "/>
<path class="st3" d="M244.5,51.7c-1.8,0-3.6-0.4-5.2-1.2l0.5-3.2c1.4,0.8,3,1.2,4.6,1.2c1.8,0,2.6-0.7,2.6-1.8
	c0-2.6-7.7-1.5-7.7-7.1c0-2.8,1.8-5.1,6.1-5.1c1.6,0,3.2,0.3,4.7,0.9l-0.5,3.2c-1.3-0.4-2.7-0.7-4-0.7c-2.1,0-2.6,0.7-2.6,1.6
	c0,2.6,7.7,1.4,7.7,7.1C250.8,49.7,248.5,51.7,244.5,51.7"/>
<path class="st3" d="M267.5,48.2h-6.1l-0.9,3.3h-4l5.8-16.7h4.5l5.9,16.7h-4.2L267.5,48.2L267.5,48.2z M264,39.3l-1.7,5.7h4.3
	l-1.6-5.7l-0.5-1.8h-0.1L264,39.3L264,39.3z"/>
<path class="st3" d="M289.6,38.3c-1-0.4-2.2-0.6-3.3-0.6c-3,0-4,1.2-4,5.2c0,4.2,1,5.5,4.1,5.5c1.1,0,2.2-0.2,3.3-0.7l0.4,3.1
	c-1.3,0.6-2.7,0.9-4.2,0.9c-5.1,0-7.5-2.8-7.5-8.8c0-5.6,2.4-8.5,7.8-8.5c1.3,0,2.6,0.2,3.9,0.7L289.6,38.3L289.6,38.3z"/>
<polygon class="st3" points="307.2,48.1 307.1,51.4 295.8,51.4 295.8,34.7 306.8,34.7 306.9,38 299.5,38 299.5,41.3 305.7,41.3 
	305.7,44.3 299.5,44.3 299.5,48.1 "/>
<path class="st2" d="M59,9.6c-2.6,5.5-5.8,10.6-9.6,15.3C38.8,38.4,24.4,48.6,16.1,48.6c-0.9,0-1.8-0.1-2.6-0.5
	c-1.6-0.6-2.7-2-3-3.7c-1.1-4.4,0.9-11.4,5.2-19.1L11.1,27c-3.6,7.3-5.2,13.8-4,18.3c0.6,2.5,2.3,4.6,4.8,5.6
	c1.2,0.5,2.6,0.7,3.9,0.7c9.7,0.1,24.7-10.3,36.5-25.1c4.6-5.6,8.3-11.8,11-18.5C63.3,8,59,9.6,59,9.6z"/>
<polygon class="st3" points="63.6,41.1 24.5,41.1 25.7,38.6 64.8,38.6 "/>
<path class="st3" d="M30.2,69.1c2.6-5.5,5.8-10.6,9.6-15.3c10.7-13.5,25.1-23.7,33.4-23.6c0.9,0,1.8,0.1,2.6,0.5
	c1.6,0.6,2.7,2,3,3.6c1.1,4.4-0.9,11.4-5.2,19.1l4.6-1.7c3.6-7.3,5.2-13.8,4-18.3c-0.6-2.5-2.3-4.6-4.8-5.6
	c-1.2-0.5-2.6-0.7-3.9-0.7C63.7,27,48.7,37.4,37,52.2c-4.6,5.6-8.3,11.8-11,18.5C25.9,70.7,30.2,69.1,30.2,69.1z"/>
</svg>
