<?xml version="1.0" encoding="utf-8"?>
<!-- Generator: Adobe Illustrator 27.5.0, SVG Export Plug-In . SVG Version: 6.00 Build 0)  -->
<svg version="1.1" id="Calque_1" xmlns="http://www.w3.org/2000/svg" xmlns:xlink="http://www.w3.org/1999/xlink" x="0px" y="0px"
	 viewBox="0 0 306 67" style="enable-background:new 0 0 306 67;" xml:space="preserve">
<style type="text/css">
	.st0{fill:#009EE2;}
	.st1{fill:#004995;}
</style>
<path class="st0" d="M90.26,24.55c-1.41-1.19-1.88-3.07-1.88-5.92V5.61h2.57v13.02c-0.15,1.23,0.09,2.48,0.69,3.57
	c0.77,1.13,2.13,1.46,4.23,1.46h8.27c2.1,0,3.46-0.33,4.23-1.46c0.6-1.09,0.84-2.33,0.69-3.57V5.61h2.57V18.5
	c0,2.96-0.53,4.89-1.85,6.05c-1.41,1.24-3.54,1.41-6.69,1.41h-6.14C93.86,25.96,91.73,25.79,90.26,24.55"/>
<polygon class="st0" points="116,25.71 116,5.61 119.92,5.61 138.08,23.42 138.08,5.61 140.57,5.61 140.57,25.71 136.92,25.71 
	118.48,7.63 118.48,25.71 116,25.71 "/>
<polygon class="st0" points="145.13,5.61 147.62,5.61 147.62,25.71 145.13,25.71 145.13,5.61 "/>
<polygon class="st0" points="149.83,5.61 152.65,5.61 162.54,23.58 172.49,5.61 175.34,5.61 164.17,25.71 160.99,25.71 149.83,5.61 
	"/>
<polygon class="st0" points="177.39,5.61 197.18,5.61 197.18,7.85 179.82,7.85 179.82,14.16 196.46,14.16 196.46,16.4 179.82,16.4 
	179.82,23.47 197.18,23.47 197.18,25.71 177.39,25.71 177.39,5.61 "/>
<path class="st0" d="M200.44,25.71V5.61h14.35c5.67,0,7.91,0.69,7.91,4.78v2.4c0,2.38-0.77,3.43-3.54,4.01
	c2.18,0.25,3.32,1.58,3.32,3.92v4.98h-2.49v-4.48c0-3.15-1.41-3.4-4.86-3.4h-12.19v7.88H200.44z M202.92,7.8v7.71h12.66
	c3.57,0,4.48-0.64,4.48-3.37v-0.97c0-2.74-0.91-3.37-4.48-3.37L202.92,7.8z"/>
<path class="st0" d="M228.69,19.16c-0.03,0.53-0.06,0.91-0.06,1.19c0,2.74,1.74,3.37,5.89,3.37h5.25c4.89,0,6.58-0.53,6.58-3.9
	c0-2.85-1.27-3.32-4.42-3.32h-8.49c-5.22,0-7.27-1.38-7.27-5.53c0-4.48,2.57-5.61,8.65-5.61h4.56c3.7,0,6.14,0.08,7.57,1.27
	c0.97,0.83,1.35,2.13,1.35,3.98v0.58h-2.41v-0.31c0-2.9-1.24-3.37-4.98-3.37h-6.86c-3.95,0-5.31,0.64-5.31,3.34
	c0,2.96,1.6,3.4,5.47,3.4h7.21c2.52,0,4.31,0.11,5.47,0.8c1.52,0.91,1.91,2.4,1.91,4.89c0,4.62-2.24,6-8.29,6h-6.83
	c-5.25,0-7.49-1.41-7.49-5.28c0-0.44,0.03-0.94,0.05-1.52L228.69,19.16z"/>
<polygon class="st0" points="252.68,5.61 255.17,5.61 255.17,25.71 252.68,25.71 252.68,5.61 "/>
<polygon class="st0" points="268.02,25.71 268.02,7.85 258.07,7.85 258.07,5.61 280.46,5.61 280.46,7.85 270.51,7.85 270.51,25.71 
	268.02,25.71 "/>
<path class="st0" d="M283.22,5.61h19.79v2.24h-17.36v6.3h16.64v2.24h-16.64v7.08h17.36v2.24h-19.79V5.61z M294.11,0.45h3.34
	l-4.64,3.68h-1.85L294.11,0.45z"/>
<polygon class="st1" points="98,47.29 98,40.43 92.16,40.43 92.16,47.29 88.38,47.29 88.38,30.54 92.16,30.54 92.16,37.04 98,37.04 
	98,30.54 101.75,30.54 101.75,47.29 98,47.29 "/>
<path class="st1" d="M118.47,44.03h-6.07l-0.94,3.26h-3.97l5.78-16.74h4.49l5.85,16.74h-4.2L118.47,44.03z M114.98,35.14l-1.67,5.74
	h4.26l-1.61-5.74l-0.45-1.76h-0.07L114.98,35.14L114.98,35.14z"/>
<path class="st1" d="M142.81,41.3c0,4.22-2.28,6.29-6.72,6.29c-4.42,0-6.76-2.08-6.76-6.29V30.54h3.75v10.71
	c0,2.03,0.92,2.92,3.01,2.92s2.99-0.87,2.99-2.92V30.54h3.73L142.81,41.3L142.81,41.3z"/>
<polygon class="st1" points="156.83,33.94 156.83,47.28 153.03,47.28 153.03,33.94 148.54,33.94 148.63,30.54 161.24,30.54 
	161.33,33.94 156.83,33.94 "/>
<polygon class="st1" points="178.54,44 178.45,47.28 167.06,47.28 167.06,30.54 178.11,30.54 178.18,33.87 170.84,33.87 
	170.84,37.2 177.02,37.2 177.02,40.19 170.84,40.19 170.84,44 178.54,44 "/>
<polygon class="st1" points="190.65,40.9 184.27,40.9 184.27,38.4 190.65,38.4 190.65,40.9 "/>
<path class="st1" d="M207.36,44.03h-6.07l-0.94,3.26h-3.97l5.78-16.74h4.49l5.85,16.74h-4.2L207.36,44.03z M203.88,35.14l-1.67,5.74
	h4.26l-1.61-5.74l-0.45-1.76h-0.07L203.88,35.14z"/>
<polygon class="st1" points="228.92,43.89 228.83,47.28 218.23,47.28 218.23,30.55 222.02,30.55 222.02,43.89 228.92,43.89 "/>
<path class="st1" d="M239.83,47.6c-1.8,0.02-3.58-0.41-5.18-1.25l0.49-3.24c1.42,0.79,3.02,1.21,4.64,1.23
	c1.83,0,2.63-0.67,2.63-1.83c0-2.63-7.7-1.52-7.7-7.12c0-2.83,1.83-5.13,6.07-5.13c1.6,0,3.19,0.29,4.69,0.87l-0.47,3.17
	c-1.3-0.44-2.66-0.68-4.04-0.71c-2.08,0-2.63,0.71-2.63,1.61c0,2.61,7.7,1.41,7.7,7.08C246.04,45.57,243.74,47.6,239.83,47.6"/>
<path class="st1" d="M262.75,44.03h-6.07l-0.94,3.26h-3.97l5.78-16.74h4.49l5.85,16.74h-4.2L262.75,44.03L262.75,44.03z
	 M259.27,35.14l-1.67,5.74h4.26l-1.61-5.74l-0.45-1.76h-0.07L259.27,35.14L259.27,35.14z"/>
<path class="st1" d="M284.88,34.18c-1.05-0.38-2.16-0.57-3.28-0.56c-3.04,0-4.04,1.23-4.04,5.2c0,4.2,1.05,5.45,4.11,5.45
	c1.12,0.01,2.23-0.21,3.26-0.65l0.38,3.06c-1.31,0.6-2.73,0.91-4.17,0.92c-5.07,0-7.52-2.81-7.52-8.79c0-5.58,2.41-8.55,7.77-8.55
	c1.32,0.01,2.64,0.25,3.88,0.69L284.88,34.18L284.88,34.18z"/>
<polygon class="st1" points="302.51,44 302.42,47.28 291.04,47.28 291.04,30.54 302.09,30.54 302.15,33.87 294.81,33.87 
	294.81,37.2 300.99,37.2 300.99,40.19 294.81,40.19 294.81,44 302.51,44 "/>
<path class="st0" d="M54.33,5.46c-2.56,5.47-5.77,10.61-9.56,15.31C34.06,34.3,19.7,44.47,11.36,44.42
	c-0.88,0.01-1.76-0.14-2.59-0.46c-1.55-0.64-2.67-2.01-3-3.65c-1.14-4.37,0.88-11.4,5.21-19.1l-4.6,1.67
	c-3.64,7.28-5.15,13.84-3.98,18.33c0.57,2.53,2.35,4.61,4.76,5.57c1.25,0.48,2.57,0.72,3.9,0.7c9.73,0.06,24.72-10.26,36.45-25.08
	c4.56-5.6,8.27-11.84,11.03-18.51C58.56,3.91,54.33,5.46,54.33,5.46z"/>
<polygon class="st1" points="58.84,36.97 19.75,36.97 21,34.47 60.1,34.47 58.84,36.97 "/>
<path class="st1" d="M25.47,65.01c2.56-5.47,5.77-10.61,9.56-15.31C45.73,36.17,60.1,26,68.43,26.05c0.88-0.01,1.76,0.14,2.59,0.46
	c1.55,0.64,2.67,2.01,3,3.65c1.14,4.37-0.88,11.4-5.21,19.1l4.6-1.67c3.64-7.28,5.15-13.84,3.98-18.34
	c-0.57-2.53-2.35-4.61-4.76-5.57c-1.25-0.48-2.57-0.72-3.9-0.71c-9.73-0.06-24.72,10.26-36.45,25.08
	c-4.56,5.6-8.27,11.84-11.03,18.51C21.23,66.55,25.47,65.01,25.47,65.01z"/>
</svg>
