<?xml version="1.0" encoding="utf-8"?>
<!-- Generator: Adobe Illustrator 27.5.0, SVG Export Plug-In . SVG Version: 6.00 Build 0)  -->
<svg version="1.1" id="Calque_1" xmlns="http://www.w3.org/2000/svg" xmlns:xlink="http://www.w3.org/1999/xlink" x="0px" y="0px"
	 viewBox="0 0 50 50" style="enable-background:new 0 0 50 50;" xml:space="preserve">
<style type="text/css">
	.st0{fill:#8C452B;}
</style>
<g>
	<path class="st0" d="M15.81,17.04l5.49,7.91c0.27,0.4,0.73,0.63,1.21,0.63c0.48,0,0.93-0.24,1.21-0.63l5.49-7.91l0,0
		c1-1.39,1.53-3.02,1.53-4.73c0-4.5-3.69-8.16-8.22-8.16c-4.53,0-8.22,3.66-8.22,8.16C14.28,14.02,14.81,15.65,15.81,17.04
		L15.81,17.04z M22.5,7.08c2.91,0,5.29,2.34,5.29,5.23c0,1.13-0.36,2.2-1.03,3.11l0,0l-4.25,6.13l-4.23-6.1l0,0
		c-0.69-0.91-1.06-1.99-1.06-3.14C17.22,9.43,19.59,7.08,22.5,7.08z"/>
	<path class="st0" d="M22.5,14.7c1.4,0,2.53-1.13,2.53-2.52c0-1.39-1.13-2.52-2.53-2.52c-1.4,0-2.53,1.13-2.53,2.52
		C19.97,13.57,21.11,14.7,22.5,14.7z"/>
	<path class="st0" d="M44.08,44.2l-2.94-23.5c-0.09-0.73-0.72-1.29-1.46-1.29H29.7l-4.54,6.54c-0.6,0.87-1.59,1.39-2.65,1.39
		c-1.06,0-2.05-0.52-2.65-1.39l-4.54-6.54h-5c-0.74,0-1.37,0.55-1.46,1.29L5.92,44.2C5.87,44.62,6,45.04,6.28,45.36
		c0.28,0.32,0.68,0.5,1.1,0.5h35.24c0.42,0,0.82-0.18,1.1-0.5C44,45.04,44.13,44.62,44.08,44.2z M16.27,31.13
		c0.34,0.34,0.34,0.9,0,1.25c-0.17,0.17-0.4,0.26-0.62,0.26c-0.23,0-0.45-0.09-0.62-0.26l-1.04-1.04l-1.04,1.04
		c-0.17,0.17-0.4,0.26-0.62,0.26s-0.45-0.09-0.62-0.26c-0.34-0.34-0.34-0.9,0-1.25l1.04-1.04l-1.04-1.04c-0.34-0.34-0.34-0.9,0-1.25
		c0.34-0.34,0.9-0.34,1.25,0l1.04,1.04l1.04-1.04c0.34-0.34,0.9-0.34,1.25,0c0.34,0.34,0.34,0.9,0,1.25l-1.04,1.04L16.27,31.13z
		 M36.93,43.59c-0.04,0.3-0.29,0.52-0.58,0.52c-0.02,0-0.05,0-0.07,0c-0.73-0.09-7.17-0.96-8.1-4.1c-0.43-1.45,0.37-3.05,2.39-4.76
		c0.61-0.52,1.6-1.49,1.33-2.19c-0.74-1.91-8.84-2.51-14.35-2.32c-0.33,0-0.6-0.24-0.61-0.57c-0.01-0.32,0.24-0.6,0.57-0.61
		c2.36-0.08,14.18-0.32,15.49,3.07c0.41,1.05-0.15,2.23-1.66,3.51c-1.12,0.95-2.38,2.33-2.02,3.52c0.61,2.04,5.35,3.05,7.12,3.27
		C36.74,42.97,36.96,43.26,36.93,43.59z M35.66,30.71c-1.19,0-2.15-0.97-2.15-2.15c0-1.19,0.97-2.15,2.15-2.15
		c1.19,0,2.15,0.97,2.15,2.15C37.81,29.75,36.84,30.71,35.66,30.71z"/>
	<path class="st0" d="M35.66,27.58c-0.54,0-0.98,0.44-0.98,0.98c0,0.54,0.44,0.98,0.98,0.98c0.54,0,0.98-0.44,0.98-0.98
		C36.64,28.02,36.2,27.58,35.66,27.58z"/>
</g>
</svg>
