<?xml version="1.0" encoding="utf-8"?>
<!-- Generator: Adobe Illustrator 27.5.0, SVG Export Plug-In . SVG Version: 6.00 Build 0)  -->
<svg version="1.1" id="Calque_1" xmlns="http://www.w3.org/2000/svg" xmlns:xlink="http://www.w3.org/1999/xlink" x="0px" y="0px"
	 viewBox="0 0 50 50" style="enable-background:new 0 0 50 50;" xml:space="preserve">
<style type="text/css">
	.st0{fill:#FFFFFF;}
</style>
<g>
	<rect x="21.22" y="2" class="st0" width="6.63" height="3.62"/>
	<polygon class="st0" points="21.61,27.56 20.04,35.88 26.54,30.45 24.07,29 	"/>
	<path class="st0" d="M26.09,8.69V7.43h-3.01v1.27C12.98,9.47,5,17.93,5,28.22c0,10.8,8.79,19.59,19.59,19.59
		s19.59-8.79,19.59-19.59C44.18,17.93,36.2,9.47,26.09,8.69z M9.4,29.43H8.06c-0.03-0.4-0.05-0.8-0.05-1.21
		c0-0.41,0.02-0.81,0.05-1.21H9.4c0.67,0,1.21,0.54,1.21,1.21C10.6,28.89,10.06,29.43,9.4,29.43z M23.38,11.69
		c0.4-0.03,0.8-0.05,1.21-0.05c0.41,0,0.81,0.02,1.21,0.05v1.34c0,0.67-0.54,1.21-1.21,1.21s-1.21-0.54-1.21-1.21V11.69z
		 M25.79,44.75c-0.4,0.03-0.8,0.05-1.21,0.05c-0.41,0-0.81-0.02-1.21-0.05v-1.34c0-0.67,0.54-1.21,1.21-1.21s1.21,0.54,1.21,1.21
		V44.75z M31.27,18.43l-2.28,12.06c-0.01,0.03-0.02,0.06-0.03,0.09c-0.01,0.04-0.02,0.07-0.03,0.11c-0.01,0.03-0.03,0.06-0.05,0.09
		c-0.02,0.03-0.03,0.06-0.06,0.09c-0.02,0.03-0.05,0.06-0.08,0.08c-0.02,0.02-0.04,0.05-0.06,0.06l-9.42,7.87
		c-0.17,0.14-0.37,0.21-0.58,0.21c-0.16,0-0.32-0.04-0.46-0.12c-0.33-0.19-0.5-0.57-0.43-0.95l2.28-12.06
		c0.01-0.03,0.02-0.06,0.03-0.08c0.01-0.04,0.02-0.07,0.03-0.11c0.01-0.03,0.03-0.06,0.05-0.09c0.02-0.03,0.03-0.06,0.06-0.09
		c0.02-0.03,0.05-0.05,0.08-0.08c0.02-0.02,0.04-0.05,0.06-0.07l9.42-7.87c0.29-0.24,0.71-0.28,1.04-0.09
		C31.17,17.67,31.34,18.05,31.27,18.43z M39.78,29.43c-0.67,0-1.21-0.54-1.21-1.21c0-0.67,0.54-1.21,1.21-1.21h1.34
		c0.03,0.4,0.05,0.8,0.05,1.21c0,0.41-0.02,0.81-0.05,1.21H39.78z"/>
</g>
</svg>
